<svg xmlns="http://www.w3.org/2000/svg" viewBox="0 0 2659 868">
  <path fill="#CC5153" d="M2390.1 243.5c3.7-.6 7.2-.7 10.5 1.2l1.2.7 1 .8 1 1q.5.4.9 1l.8 1 .6 1.3.6 1.2.4 1.3c.8 3.2.4 6.4-1.3 9.3-2.3 3.6-5.3 5-9.4 5.9-1.3.4-2.8.2-4.1 0-2.9-.3-5.4-1.2-7.2-3.6-2.4-3.2-2.9-7.8-2.2-11.7.8-4.6 3.6-6.8 7.2-9.4ZM2424.8 283.5a21.6 21.6 0 0 1 15.1 1l.9.5.8.5.8.6.8.6.7.6.7.6.7.7.6.8.6.7.6.8.5.8.5.9.4.8.4 1 .3.8.3 1a17 17 0 0 1-1.5 13.4c-2.8 4.7-6.7 7-11.8 8.4-1.9 1.2-5.2 1-7.3.7-4.5-.5-8.1-2.4-10.8-6-3.3-4.3-4.4-10-3.5-15.3 1-6.7 5-10.1 10.2-13.9ZM2354.5 281.5c8.5-1 16-.2 23.2 5l1 .8q.6.4 1.1 1l1 .9 1 1 .9 1 .8 1 .8 1.2.8 1.2.6 1.2.7 1.2.5 1.3.5 1.2.5 1.3.3 1.4.4 1.3.2 1.4c1.1 7.3-.6 15-5 21a28 28 0 0 1-18.6 10.7c-4.2 1-11.2-.3-15.3-1.9a25.1 25.1 0 0 1-14.2-13.9c-3-7.2-3.3-15.3-.2-22.5 3.9-9 10.4-13.2 19-16.8Z"/>
  <path d="m391 153.3 3.5-.3c6.7-.3 13.5 1.9 18.4 6.5 5.2 5 6.6 11 6.7 17.9.4 15.4-1.3 31.3-2 46.7l-4.5 91.4c-5.2 110.9-11 222.6-7.4 333.6q26.9-2.2 53.8-4.1c10-.8 21.2-2.5 31.2-1.6a24 24 0 0 1 12.1 4.2l1 .7.9.8.8.8.8.8.8 1 .7.8.7 1 .7 1 .5 1 .6 1 .4 1.2.4 1 .4 1.2.3 1.1.3 1.2.1 1.1c.9 6.1-.8 12.7-4.5 17.6a24 24 0 0 1-16.5 9q-34.6 2.2-69.2 5c-12.4 1-25.3 3.3-37.7 3.4-4.6 0-9.8-.6-14-2.3a19.5 19.5 0 0 1-10.2-10.8c-3.8-9-1.3-24-1.4-33.7-2.1-134.9 4-269.4 10.8-404.1.7-14.2 1.3-70.5 5.7-80.7 3-7.3 9-10.6 15.9-13.4ZM650.4 369.4q4.6-.2 9.2 0 4.6.3 9.1 1c21 3.1 41.9 14 54.6 31.3a65.3 65.3 0 0 1 11.1 50c-1.6 10.4-4.8 22.6-13.8 28.9l-1 .6-1 .6-1.1.6-1 .5-1.2.4-1 .4-1.2.3-1.2.3-1.1.2-1.2.2-1.2.1H705l-1.2-.1-1.2-.2-1-.3-1.2-.2-1-.4-1.2-.4-1-.4-1-.5-1-.6-1-.6-1-.6-1-.7-.8-.8-.8-.7-.8-.9-.8-.8-.7-1-.7-.8c-7.7-11.3-1-21.6.8-33.2.7-4.6-.2-9.1-3.1-12.8-5.8-7.4-16.8-11.4-26-12.3a49 49 0 0 0-35.7 12.2c-31.1 25.6-44.3 72.5-48.2 111.4-3.3 33.4-3 81.8 19.4 108.8 7 8.5 16.4 14.2 27.4 15.2a55.6 55.6 0 0 0 39-13.5c15.2-12.7 18.3-27.9 20-46.6.7-3.1 2.2-6.3 4-8.8 3.8-5.2 9-9.2 15.4-10 6.3-.9 12.5 1 17.5 5a25.7 25.7 0 0 1 9.2 17.6c2.4 21.5-8.6 48.4-22 64.7l-1.6 2-1.7 2-1.8 1.8-1.8 1.8-1.9 1.8q-.9 1-1.9 1.8l-1.9 1.7-2 1.6-2 1.6-2 1.6-2.1 1.5-2.2 1.4q-1 .8-2.1 1.4L678 696l-2.2 1.3-2.3 1.2-2.3 1.2-2.3 1.2-2.3 1-2.4 1-2.4 1-2.4 1-2.4.8-2.5.8-2.5.7-2.4.7-2.5.6-2.6.5-2.5.5-2.5.5-2.6.3-2.5.3-2.2.2-2.1.2h-8.5l-2.2-.1-2.1-.2-2.1-.2-2.1-.3-2.1-.4-2.1-.3-2.1-.5-2.1-.5-2-.5-2.1-.6-2-.7-2-.7-2-.7-2-.8-2-.9-2-.9q-1-.4-1.9-1-1-.4-1.9-1l-1.8-1-1.9-1-1.8-1.2-1.8-1.1-1.7-1.3-1.7-1.2-1.7-1.3-1.7-1.4c-28.8-24-39.1-62.3-42.4-98.2-5.6-61.8 7.3-134.4 48-183a106.2 106.2 0 0 1 74.1-40.5ZM1073.6 377.5l5.1-.1 5.2.1 5.2.5 5 .7 5.2 1 5 1.3 4.9 1.5 4.8 1.8a79 79 0 0 1 43.4 41.8l1.2 3.1 1 3.2 1 3.2.7 3.3.5 3.2.4 3.3.2 3.4v6.6l-.3 3.3-.5 3.3q-.2 1.7-.6 3.3l-.8 3.3-1 3.2-1 3-1.3 3.2c-9.5 22.1-29.7 38.1-51.7 46.9-33.3 13.2-63.6 9-95.7-4.9 2.5 8 1.1 26.4 2.2 35.7 3.4 31 15.3 67.4 40.7 87.5 21.5 17 47.7 13.7 69.4-1.3 9.3-6.4 20-18.5 31.5-19.7 4.2-.4 8.6 0 11.9 2.7a18 18 0 0 1 4.5 2.2c4.7 3.3 7.8 8.9 8.8 14.4 1.2 6.5-.8 12.7-4.7 18-14 19.4-52.6 37.8-76.2 41.2a96.1 96.1 0 0 1-72.2-19.1c-36-27.3-54-73.5-60-117-6.6-49.2 1.6-102 32.4-142 19.4-25.3 44.1-41 75.8-45.1Zm.2 47c-21.5 5.5-32.8 17.3-44.5 35.4-2.3 3.7-4.8 9.1-8.1 12 13.7 6.7 25.5 15 41.5 14.3 16.2-.5 33.4-5.5 44.8-17.6 4.7-5 8-11.4 7.7-18.4a23.2 23.2 0 0 0-8-16.2 45.8 45.8 0 0 0-32.3-9.6l-1 .1ZM785.6 153c4.2-.4 8.6 0 12.9 0 4 2.4 7.8 5.5 11.6 8.3 2.3 77.9 6 156.3 10.8 234 13.9-10.2 29.5-17.4 47.1-16.1a57 57 0 0 1 39.1 20.7c39.7 46.4 37.1 157.4 38.8 216.7.5 18.7 3.6 42 2 60.2a23.2 23.2 0 0 1-8 17l-1 .8-1 .6-1 .7-1 .6-1 .5-1.1.5-1.1.4-1.1.4-1.2.3-1.1.3-1.2.2-1.2.1-1.1.1H922.2l-.8-.1-.7-.2-.8-.1-.8-.2q-.4 0-.7-.2l-.8-.2-.8-.2-.7-.3-.7-.3-.7-.4-.7-.3-.7-.4-.7-.4-.7-.4-.6-.4-.7-.5-.6-.5-.6-.5-.6-.5-.6-.6-.5-.5-.5-.6-.5-.6-.5-.7-.5-.6-.4-.6-.5-.7-.4-.7-.3-.7-.4-.7-.3-.7-.3-.7c-4.5-11.7-3-35.7-3.4-49.2-.8-25.6-2.9-154.8-14-168.1l.2-.4c2-6.5-6.3-23.8-9.6-29.6-2.1-3.8-5.8-9.9-10.3-11-4.3-1-9 .5-12.6 2.8-16 10.5-25.1 37.4-27.3 55.4-2 16.7.7 35.6 1.9 52.3q3.9 52.4 8.9 104.8c1 12.3 4.6 29.3 1.8 41.4l-.3 1-.3 1.2-.4 1-.5 1-.4 1-.6 1-.6 1-.6.9-.7.8-.7.9-.7.8-.8.8-.9.7-.8.7-1 .6-.9.6-1 .6-1.1.6-1.1.5-1.1.4-1.2.4-1.1.4-1.2.2-1.2.2-1.2.2h-4.8l-1.2-.2-1.2-.3q-.6 0-1.1-.2c-5.8-1.5-10.6-5-13.5-10.1-2-3.7-3.3-7.9-4-12-2.5-17.6-2.7-36.5-4.3-54.3l-7.5-92.1c-.7-9-2.2-17.8-2.8-26.8-.6-8.5-.2-17.1-.4-25.6-.3-14.2-1.1-28.4-1.8-42.5l-7.6-164.3c-.9-18.4-6.6-87-2.8-100.2 2.8-9.6 12.2-14.6 20.3-19.1ZM2527.1 24.5c6.8-1 13.5.2 19.3 4 5 3.4 8.6 9.3 9.5 15.2 1 6.3-15.1 85-17.2 87.8q35.5.9 70.8 4c10 .8 20.9 1 30.6 3.7 4.3 1.1 8.2 3 11.4 6a22.7 22.7 0 0 1 6.5 16.2v2.4l-.2 1.2-.2 1.2-.3 1.2-.3 1.1-.3 1.2-.5 1.1-.5 1.1-.5 1.1-.6 1-.6 1-.7 1-.8 1-.7 1-.9.8a22 22 0 0 1-13.4 6.4c-11.3 1.3-27.8-2.2-39.8-3.2q-33-3-66.3-3.2c2.2 5.3-6.8 75.7-7.8 87.8-6.2 77.3-7.9 157.3 4.3 234 8.2 51.6 27.7 124.9 71 158.2 13.8 10.6 27.4 9.3 35.8 15.6 3 2.3 4.6 4.4 5.1 8.1.8.8 1.7 1.6 2.3 2.6 2.2 4 2.7 11 1.2 15.4a25 25 0 0 1-12.7 13.2c-10.2 4.9-22.3 2.5-32.4-1.2-23.1-8.4-42.9-27.4-57.5-46.6-76-99.8-73.2-270.5-65.2-390.2q2-29.2 5.4-58.3c1.2-10.8 3.1-22 3.5-33 .1-1.7-.3-3.2-1-4.7-12 .6-23.5 2.8-35.3 4-7.7.8-16 0-22.3-5.1-4.9-4-7-10-7.6-16.2-.4-6 1-12 5.1-16.6 12.7-14.2 49.4-12.8 67.7-14 4-4.7 13.3-76.9 19.5-91.6 3.6-8.6 8.3-12.3 16.6-15.7ZM1741.4 362.5c2.2-.2 4.4-.5 6.6-.5a25 25 0 0 1 17.4 8c9.7 10.2 12.8 28.6 16.7 41.9 20 67 34.7 136.6 33.1 206.8-1.8 76.7-26.5 163.2-83.6 217.4-18.1 17.2-41.2 31.1-67 30.3A70.9 70.9 0 0 1 1615 843c-24.3-26.1-36.9-72.3-35.4-107.8.3-7.4 2-14 7.9-19a24 24 0 0 1 17.8-6c8.2.7 16 6.2 19.3 13.9 3 6.9 2.6 15.8 3.3 23.2 1.6 20.3 6.4 45.4 19.6 61.6a25.7 25.7 0 0 0 18 10c11.2 1 22.2-6.9 30.3-13.8 7.1-6.2 29.4-30 30-38.5 9.6-7.8 20.1-36.6 24.6-49.3 6.2-17.3 22.8-81.1 15.8-95.8l-.2.1c-11.2 7.1-34 4.6-46.2 1.6-36-8.7-67.6-34.5-86.6-66-25.5-42-28.1-92.1-23-139.9 1.2-11.4 2.3-23.4 5-34.6 1.9-7 5.2-13.2 11.7-17l1-.5 1.2-.5 1.1-.5 1.2-.4 1.1-.3 1.2-.3 1.2-.2 1.2-.2h1.2l1.2-.1h2.5l1.2.2 1.2.3 1.2.2 1.1.4a23 23 0 0 1 16 17.5c2 10.7-2.4 25.2-4 36.1-5.5 35.7-3.9 79.2 13.6 111.3a98.6 98.6 0 0 0 57.3 48c8.3 2.4 19.2 2.9 26.8-1.7 3.7-2 6.7-4.9 10.4-7 1.7-29.6-19.4-112-28.9-143.2-3.5-11.6-9.4-23-12-34.7-1-4.3-1-8.6.5-12.7 2.7-7.6 9.2-11.6 16-14.8ZM1226.6 363.5c5.5-.8 10.4-.9 15.6 1.4a24.4 24.4 0 0 1 13.4 13c1.6 4.2 2 9.8 0 14 4-2.1 7.6-5 11.5-7.5 12.7-8 26.2-13.8 41.2-15.6a83 83 0 0 1 61.7 18c6.8 5.3 22.6 19.5 23.6 28.3 8.1-7.4 14.3-19.3 24.5-28a84.4 84.4 0 0 1 60.3-21 80.6 80.6 0 0 1 54.8 30c34.6 41 39.6 102.3 35.3 153.7-2 23.5-19.3 137.1-35.4 150.3l-.9.7-1 .6q-.4.4-1 .6l-1 .6-1 .5-1 .5-1.1.4-1.1.3-1.1.4-1.2.2-1 .2-1.2.1-1.2.1h-2.3l-1.2-.1a24.3 24.3 0 0 1-16-9c-2.6-3.5-4.9-8.5-4.7-13 .6-14.3 7.5-32.3 11-46.5q9.3-37.4 14.3-75.6c5.1-42.4 5.7-98.8-22.1-134a33.8 33.8 0 0 0-22.7-14c-20.7-2.1-38.5 18-46 35.3-3.1 7.3-5.2 23.3-11 28.1 0 1 0 .6-.4 1.5-3.4 6.5.5 45.5.4 56-.2 34.4-3.7 68.7-7.2 102.8-1 10-.6 20.5-2.7 30.2-1.4 6.8-4.6 12.1-10.5 15.8l-1 .6-1 .6-1.1.5-1 .4-1.2.4-1.1.3-1.1.3-1.2.2-1.1.2h-1.2l-1.2.1h-2.3l-1.1-.2-1.2-.2-1.1-.3a23 23 0 0 1-17-16.7c-3-13 1-30.6 2.3-43.8 4.9-52 16.6-139.4-11-185.7a48.6 48.6 0 0 0-28.4-23.5c-11-2.6-22 .6-31.3 6.4a82.8 82.8 0 0 0-35.5 47.8c-2.2 9.4.8 27.8 1.4 38l6.2 92.1c1.2 17.4 7 66.5 3.3 81.2a22.8 22.8 0 0 1-10 14.4 25 25 0 0 1-19 2.3l-1-.3-1.1-.5-1-.4-1.1-.6-1-.5-1-.7-1-.6-1-.8-.8-.7-.8-.9-.8-.8-.8-.9-.7-1-.7-.9-.6-1-.5-1a25.2 25.2 0 0 1-2.5-9c-3.1-25.5-3.4-56.8-5.2-83.1-3.6-54-7.9-108-9.4-162-.4-14.5-3-41.8 1.3-54.6 2.5-7.5 8.4-11 15-14.4ZM2334.5 355.5c15.3-1.4 28.3 14 43 17.7 13.6 3.6 28-1.8 41.2 4.5 6.3 3 11.4 8.3 13.6 15 8.3 25.5-17.2 28.5-24.2 44.6-3.4 7.8-1.2 18-5 25.4 6.6 3 12.7 8.2 18 13.1a146.1 146.1 0 0 1 48 101v10.1l-.2 3.4-.2 3.4-.3 3.3-.4 3.4-.5 3.3-.5 3.4-.7 3.3-.7 3.3-.8 3.3-1 3.2-.9 3.3-1 3.2-1.2 3.2q-.5 1.6-1.2 3.1l-1.3 3.2-1.3 3-1.5 3.1-1.5 3-1.6 3-1.6 3-1.8 2.9-1.8 2.8-1.8 2.9-2 2.7-2 2.7-2 2.7-2.2 2.6-2.2 2.6-2.3 2.5a144 144 0 0 1-100.8 45.3c-32.8 1.7-66.5-9-93.2-27.8l-3-2-2.8-2.2-2.9-2.3-2.8-2.3-2.7-2.4-2.6-2.4q-1.4-1.2-2.6-2.5l-2.6-2.6-2.4-2.6-2.4-2.7-2.4-2.8-2.3-2.8-2.2-2.9-2-2.9-2.2-3-2-3-1.8-3-1.9-3.2-1.7-3.1-1.7-3.2-1.6-3.3-1.5-3.3q-.8-1.6-1.4-3.3l-1.4-3.3-1.3-3.4-1.2-3.4-1-3.5-1-3.4-1-3.5-.8-3.6-.8-3.5-.7-3.5-.5-3.4-.4-3.3-.4-3.4-.3-3.4-.2-3.3-.1-3.4v-6.8l.1-3.3.2-3.4.3-3.4.4-3.3.5-3.4.5-3.3.7-3.3.7-3.3q.3-1.7.8-3.3l.8-3.3 1-3.2 1-3.2 1.1-3.2 1.2-3.2 1.3-3.1 1.3-3.1 1.4-3 1.5-3.1 1.6-3 1.7-3 1.7-2.9 1.8-2.8 1.8-2.9 2-2.7c24-33.7 58.8-51.7 99-58.3.7-.5 1.4-1 2-1.8a43.8 43.8 0 0 0 9.3-34c-1.3-6.2-3.5-12.3-4-18.6a25.4 25.4 0 0 1 5.5-18.4c5.6-6.4 13.2-8.5 21.3-9Zm-109.9 203.8c13.5-4 33-14.2 46.5-6.8 8.8 4.7 12.8 16.9 22.2 19.8 7.7 2.4 19.8-2.4 27.9-3.4 15.2-1.8 37.2 1.9 42.2 19.1l.2 1.3c14-2 30-8.5 42.7 1 4.5 3.5 7.6 8.5 11.4 12.5a9 9 0 0 0 3-5.3c4.8-22-2.4-48.2-14.4-66.7-17.7-27.1-38.8-37.5-69.3-44a92.7 92.7 0 0 0-72.7 12.7 91.2 91.2 0 0 0-39.7 59.8ZM2354 401.5c4 16.5-7.5 45.5-16.6 59.5-.3.5-.6.8-1 1.1 7.6 1.6 17.4 3 24.4 6.4l2-1.7v-.4a94.7 94.7 0 0 1 12.4-52c1.2-2 4.4-6 2-7.8a37 37 0 0 0-21.2-5.4l-.8.2h-.8l-.4.1Z"/>
  <path fill="#CC5153" d="M2224.6 559.3c13.5-4 33-14.2 46.5-6.8 8.8 4.7 12.8 16.9 22.2 19.8 7.7 2.4 19.8-2.4 27.9-3.4 15.2-1.8 37.2 1.9 42.2 19.1l.2 1.3c14-2 30-8.5 42.7 1 4.5 3.5 7.6 8.5 11.4 12.5.4 1 .6 1.9.6 2.8-.9 14.4-17.1 35.4-27.6 44.5l-2 1.6-1.8 1.5-2 1.4-2 1.4-2 1.4-2 1.3-2 1.3-2.2 1.2-2.1 1.1-2.2 1.1q-1 .6-2.2 1-1 .6-2.2 1l-2.2 1-2.3.9-2.3.8-2.3.8-2.3.7-2.3.6-2.4.6-2.3.6-2.4.5-2.4.4-2.4.3-2.4.3-2.4.3-2.4.2h-2.5l-2.4.2h-2.4l-2.5-.1-2.4-.1-2.4-.2q-1.3 0-2.5-.2l-2.6-.3-2.5-.4-2.6-.4-2.5-.4-2.5-.6-2.5-.6-2.5-.6-2.5-.7-2.4-.8-2.4-.9-2.4-.9-2.4-1-2.4-1q-1.2-.4-2.3-1l-2.3-1.1-2.3-1.2-2.2-1.2-2.3-1.3-2.2-1.4-2.1-1.4-2.1-1.4-2.1-1.5-2-1.6-2-1.6-2-1.6-2-1.7-1.8-1.8-1.9-1.8-1.8-1.8-1.7-1.9-1.7-2c-19.8-23-24.8-48.3-22.5-77.8Z"/>
  <path d="M1987.5 11.5c5-1 10.2-1.3 15 .4 8.4 3.1 13.2 9.8 16.6 17.7 2.1 4.7 5.9 18.4 4 23.2 9.5-1.4 19-4.2 28.4-5.8q5-.8 9.9-1.3l10-1 10-.5h9.9q5 0 10 .3l10 .8q5 .5 9.9 1.3l9.8 1.6c51.2 9.6 100.7 36.3 130.5 80 30.1 44 35.5 99 25.7 150.5-12 62.7-46.5 123-100 159.2-32.6 22.2-72 35-111.5 27.3l.6 2.4c3.3 16.6 4.4 170.3-1.2 178.9 2.8 4.6 1.6 31 .8 37.6-.8 7.5-4 14.7-10 19.4-4.6 3.5-10.3 5-16.1 4.1q-.8 0-1.6-.3l-1.6-.3-1.5-.5-1.5-.6-1.4-.7-1.5-.8-1.3-.9q-.7-.4-1.3-1l-1.2-1-1.2-1.1-1-1.2q-.6-.6-1-1.3l-1-1.3-.8-1.4-.8-1.4-.6-1.5c-5.3-13.3.2-69.2.5-86.6q.6-39.1.1-78.2-1-45.1-3.4-90.1-2.5-45-6.5-90t-9.4-89.7q-5.5-44.8-12.4-89.4c-1.6-9.9-4.2-39.9-9.7-47.2l-.4.9c-3.9 6.3-19.5 18-25.7 26.8-8.3 11.6-11.4 27.3-20.2 38l-.7.8-.8.8-.8.7-.8.8-.9.6-.9.6-.9.6-1 .6-1 .4-1 .5-1 .4-1 .3-1 .3q-.6 0-1.1.2l-1 .2h-1.2c-6.6.6-14.3-2-19.3-6.3a20 20 0 0 1-6.6-14.5c-1.1-24 30.3-66 48.5-81 7.4-6 23-14.9 28.4-21l.3-.4c3.2-13.2-11.5-28.8-7.6-42.8 2.3-8.2 8.5-13 15.5-17.1Zm94.3 80c-16.4 1-31.8 3.6-47.7 7.5 4.4 5.9 6.3 27.5 7.7 35.8q16.6 99 25.6 198.9c2.7 29.4 6 59.4 6.6 89 9.2-3.5 18-2.7 27.5-2.9 19.4-.3 37.2-7.5 53.6-17.4 2.9-1.7 10.9-6 12.1-9l.1-.3c24.7-11.2 53.6-61 63.1-86.4 15.8-42 21-92.8 2-134.4-15.5-33.6-45.7-56.8-79.8-69.3-23-8.4-46.4-11.5-70.8-11.5ZM0 567l.1-.8c2-13.2.8-28.4 1-41.8q.8-34 3.1-67.7C12.5 336.4 42.3 94 141.1 19.8a84.4 84.4 0 0 1 62.2-18c24 3.4 43.3 18.5 57.5 37.5 77.1 103.1 70.6 407.4 72.1 540 .3 26.7.1 53.5 1 80.1.4 14.4 3.5 31.6 1.4 45.9-1 6.2-3.6 11.5-8.8 15.3-5.2 3.8-12 5.4-18.3 4.3-6-1-11.3-4.2-14.8-9.2-3-4.3-4.1-9.4-4.7-14.6-3.4-32.1-2-70.2-2.4-103q-.6-92.2-2.8-184.4c-14-.2-28.3-1.3-42.3-1.1-47.1.5-147 7.5-188.2 21.6-6.2 61.6-7 124.7-4.5 186.4q.8 18.5 3 36.8c1 7.9 3.2 16.8 3 24.7a22.6 22.6 0 0 1-8.3 16.5l-1 .7-1 .7-1 .6-1 .6-1.1.5-1.1.5-1.1.4-1.2.4-1.1.3-1.2.3-1.2.1-1.2.2H29.4l-1.2-.1c-6-.7-11.1-3.6-14.8-8.4C1 679.3 1.4 615 .9 593.8c-.1-7.4 1.2-19.2-.9-26v-.8ZM187.5 48.3c-28.8 9-47.2 39-60.5 64.5-42.2 80.6-58.6 181.7-69.3 271.6q42.2-8.5 85-12.3c34-3.2 68.3-6 102.4-6.6 12.2-.2 24.5.8 36.7.8-3.5-75-12.3-259.1-67.2-308.8-6.6-6-14.5-10-23.6-9.5l-3.5.3Z"/>
</svg>
